<svg xmlns="http://www.w3.org/2000/svg" version="1.1" xmlns:xlink="http://www.w3.org/1999/xlink" xmlns:svgjs="http://svgjs.com/svgjs" width="1440" height="560" preserveAspectRatio="none" viewBox="0 0 1440 560"><g mask="url(&quot;#SvgjsMask1033&quot;)" fill="none"><rect width="1440" height="560" x="0" y="0" fill="rgba(200, 216, 228, 1)"></rect><path d="M1303 56.33 a2.05 2.05 0 1 0 4.1 0 a2.05 2.05 0 1 0 -4.1 0z" stroke="rgba(242, 242, 242, 1)"></path><path d="M990.71 424.27L996.46 424.27L996.46 427.75L990.71 427.75z" fill="rgba(43, 103, 119, 1)"></path><path d="M987.45 123.36a53.75 53.75 0 1 0-91.75-56.02z" stroke="rgba(82, 171, 152, 1)"></path><path d="M811.34 450.23L829.23 450.23L829.23 468.12L811.34 468.12z" fill="rgba(43, 103, 119, 1)"></path><path d="M1249.02 242.44a41.86 41.86 0 1 0-36.01 75.58z" stroke="rgba(43, 103, 119, 1)"></path><path d="M826.18 185.33L880.49 185.33L880.49 211.82L826.18 211.82z" stroke="rgba(242, 242, 242, 1)"></path><path d="M1254.85 221.05L1289.59 221.05L1289.59 255.79L1254.85 255.79z" fill="rgba(82, 171, 152, 1)"></path><path d="M-0.39 477.36 a50.29 50.29 0 1 0 100.58 0 a50.29 50.29 0 1 0 -100.58 0z" stroke="rgba(82, 171, 152, 1)"></path><path d="M649.65 237.8L658.57 237.8L658.57 246.72L649.65 246.72z" stroke="rgba(43, 103, 119, 1)"></path><path d="M1024.1 263.66L1048.83 263.66L1048.83 270.71L1024.1 270.71z" fill="rgba(242, 242, 242, 1)"></path><path d="M385.26 81.8a8.23 8.23 0 1 0-0.75 16.45z" fill="rgba(242, 242, 242, 1)"></path><path d="M518.02 236.59L535.75 236.59L535.75 254.32L518.02 254.32z" stroke="rgba(242, 242, 242, 1)"></path><path d="M1079.49 476.9L1114.97 476.9L1114.97 512.38L1079.49 512.38z" stroke="rgba(43, 103, 119, 1)"></path><path d="M1197.7 457.2a19.39 19.39 0 1 0-11.05 37.17z" fill="rgba(82, 171, 152, 1)"></path><path d="M107.99 256.86L139.8 256.86L139.8 269.65L107.99 269.65z" stroke="rgba(43, 103, 119, 1)"></path><path d="M296.92 198.62L304.12 198.62L304.12 254.45L296.92 254.45z" stroke="rgba(82, 171, 152, 1)"></path><path d="M968.81 115.67L1012.59 115.67L1012.59 159.45L968.81 159.45z" fill="rgba(43, 103, 119, 1)"></path><path d="M957.27 389.36a32.54 32.54 0 1 0 22.25-61.16z" stroke="rgba(242, 242, 242, 1)"></path><path d="M243.88 484.45L257.46 484.45L257.46 498.03L243.88 498.03z" fill="rgba(82, 171, 152, 1)"></path><path d="M661.43 511.45a20.82 20.82 0 1 0 25.92-32.59z" stroke="rgba(43, 103, 119, 1)"></path><path d="M472.69 224.12 a18.14 18.14 0 1 0 36.28 0 a18.14 18.14 0 1 0 -36.28 0z" fill="rgba(43, 103, 119, 1)"></path><path d="M-21.22 96.06 a27.45 27.45 0 1 0 54.9 0 a27.45 27.45 0 1 0 -54.9 0z" fill="rgba(82, 171, 152, 1)"></path><path d="M765.33 420.57a0.56 0.56 0 1 0-0.86-0.71z" stroke="rgba(43, 103, 119, 1)"></path><path d="M758.62 32.36L807.32 32.36L807.32 81.06L758.62 81.06z" fill="rgba(242, 242, 242, 1)"></path><path d="M577.44 483.66L604.57 483.66L604.57 498.11L577.44 498.11z" stroke="rgba(242, 242, 242, 1)"></path><path d="M1263.71 189.73a1.11 1.11 0 1 0-1.52 1.61z" stroke="rgba(82, 171, 152, 1)"></path><path d="M531.57 369.2a9.69 9.69 0 1 0 10.93-16.01z" stroke="rgba(43, 103, 119, 1)"></path><path d="M383.6 25.81L396.72 25.81L396.72 38.93L383.6 38.93z" stroke="rgba(242, 242, 242, 1)"></path><path d="M998.85 480.82a37.35 37.35 0 1 0-66.24 34.52z" stroke="rgba(43, 103, 119, 1)"></path><path d="M95.55 336.84a28.19 28.19 0 1 0-38.38-41.3z" fill="rgba(242, 242, 242, 1)"></path><path d="M192.35 514.82a0.58 0.58 0 1 0 0.25-1.13z" fill="rgba(242, 242, 242, 1)"></path><path d="M855.11 280.32L870.01 280.32L870.01 312.82L855.11 312.82z" stroke="rgba(82, 171, 152, 1)"></path><path d="M351.6 284.81a42.45 42.45 0 1 0 75.5-38.83z" fill="rgba(82, 171, 152, 1)"></path></g><defs><mask id="SvgjsMask1033"><rect width="1440" height="560" fill="#ffffff"></rect></mask></defs></svg>